<?xml version="1.0" encoding="utf-8" standalone="no"?>
<!DOCTYPE svg PUBLIC "-//W3C//DTD SVG 1.1//EN"
  "http://www.w3.org/Graphics/SVG/1.1/DTD/svg11.dtd">
<svg xmlns:xlink="http://www.w3.org/1999/xlink" width="432pt" height="432pt" viewBox="0 0 432 432" xmlns="http://www.w3.org/2000/svg" version="1.1">
 <metadata>
  <rdf:RDF xmlns:dc="http://purl.org/dc/elements/1.1/" xmlns:cc="http://creativecommons.org/ns#" xmlns:rdf="http://www.w3.org/1999/02/22-rdf-syntax-ns#">
   <cc:Work>
    <dc:type rdf:resource="http://purl.org/dc/dcmitype/StillImage"/>
    <dc:date>2025-06-25T11:01:36.961776</dc:date>
    <dc:format>image/svg+xml</dc:format>
    <dc:creator>
     <cc:Agent>
      <dc:title>Matplotlib v3.7.1, https://matplotlib.org/</dc:title>
     </cc:Agent>
    </dc:creator>
   </cc:Work>
  </rdf:RDF>
 </metadata>
 <defs>
  <style type="text/css">*{stroke-linejoin: round; stroke-linecap: butt}</style>
 </defs>
 <g id="figure_1">
  <g id="patch_1">
   <path d="M 0 432 
L 432 432 
L 432 0 
L 0 0 
L 0 432 
z
" style="fill: none"/>
  </g>
  <g id="axes_1">
   <g id="patch_2">
    <path d="M 216.387772 125.287273 
C 204.094419 118.216962 190.354091 114.030687 176.206835 113.045317 
C 162.059578 112.059947 147.871582 114.300989 134.716776 119.598811 
C 121.561971 124.896633 109.780857 133.114106 100.265182 143.629226 
C 90.749507 154.144345 83.745574 166.684937 79.783533 180.301767 
C 75.821492 193.918596 75.003896 208.259205 77.392631 222.238109 
C 79.781366 236.217013 85.314602 249.472382 93.573513 261.000878 
C 101.832423 272.529374 112.603233 282.032592 125.070669 288.791206 
C 137.538105 295.54982 151.379458 299.388889 165.547036 300.017823 
C 162.116952 290.949056 161.957102 280.961473 165.095214 271.787582 
C 168.233327 262.613691 174.476815 254.816499 182.742645 249.748552 
C 172.152998 228.485531 169.726089 204.058335 175.924937 181.127331 
C 182.123785 158.196327 196.527399 138.31886 216.387772 125.287273 
" clip-path="url(#p4bdbf91788)" style="fill: #96db70; opacity: 0.8; stroke: #808080; stroke-width: 2; stroke-linejoin: miter"/>
   </g>
   <g id="patch_3">
    <path d="M 216.387772 125.287273 
C 228.226152 132.095913 238.433089 141.412511 246.290969 152.582048 
C 254.148848 163.751586 259.469097 176.506017 261.877667 189.948622 
C 264.286237 203.391227 263.725327 217.19941 260.234373 230.402368 
C 256.743419 243.605325 250.406197 255.886211 241.668255 266.381601 
C 244.29447 271.544539 245.815594 277.198778 246.134287 282.982494 
C 246.45298 288.766211 245.562297 294.553345 243.519233 299.973569 
C 259.164266 304.346021 275.659312 304.72299 291.487758 301.069814 
C 307.316205 297.416639 321.977609 289.848821 334.123951 279.062172 
C 346.270293 268.275523 355.517544 254.611081 361.015482 239.325202 
C 366.513419 224.039323 368.088216 207.615296 365.59508 191.563203 
C 363.101944 175.51111 356.6197 160.338466 346.744347 147.440295 
C 336.868994 134.542123 323.912759 124.326224 309.066882 117.73188 
C 294.221006 111.137536 277.954866 108.37324 261.764028 109.693151 
C 245.573189 111.013061 229.969553 116.375447 216.387772 125.287273 
" clip-path="url(#p4bdbf91788)" style="fill: #db8663; opacity: 0.8; stroke: #808080; stroke-width: 2; stroke-linejoin: miter"/>
   </g>
   <g id="patch_4">
    <path d="M 216.387772 125.287273 
C 196.527399 138.31886 182.123785 158.196327 175.924937 181.127331 
C 169.726089 204.058335 172.152998 228.485531 182.742645 249.748552 
C 187.645566 246.742473 193.118107 244.783639 198.814967 243.995647 
C 204.511826 243.207655 210.310612 243.607434 215.845436 245.16976 
C 221.380261 246.732086 226.532212 249.423393 230.976217 253.073867 
C 235.420223 256.724341 239.060805 261.255554 241.668255 266.381601 
C 250.406197 255.886211 256.743419 243.605325 260.234373 230.402368 
C 263.725327 217.19941 264.286237 203.391227 261.877667 189.948622 
C 259.469097 176.506017 254.148848 163.751586 246.290969 152.582048 
C 238.433089 141.412511 228.226152 132.095913 216.387772 125.287273 
" clip-path="url(#p4bdbf91788)" style="fill: #fff794; opacity: 0.8; stroke: #808080; stroke-width: 2; stroke-linejoin: miter"/>
   </g>
   <g id="patch_5">
    <path d="M 165.547036 300.017823 
C 168.542009 307.936206 173.879993 314.757037 180.846473 319.567317 
C 187.812953 324.377598 196.082581 326.952679 204.548432 326.947874 
C 213.014282 326.943069 221.280982 324.358602 228.241997 319.540417 
C 235.203012 314.722232 240.53325 307.895346 243.519233 299.973569 
C 238.7141 298.630637 234.01962 296.91932 229.477523 294.854829 
C 224.935425 292.790339 220.559208 290.37881 216.387772 287.641679 
C 208.713257 292.055544 200.451443 295.358864 191.849377 297.452862 
C 183.24731 299.546861 174.391595 300.410455 165.547036 300.017823 
" clip-path="url(#p4bdbf91788)" style="fill: #636ddb; opacity: 0.8; stroke: #808080; stroke-width: 2; stroke-linejoin: miter"/>
   </g>
   <g id="patch_6">
    <path d="M 165.547036 300.017823 
C 174.391595 300.410455 183.24731 299.546861 191.849377 297.452862 
C 200.451443 295.358864 208.713257 292.055544 216.387772 287.641679 
C 209.233394 282.947261 202.730908 277.327573 197.049483 270.928816 
C 191.368058 264.53006 186.557393 257.408211 182.742645 249.748552 
C 174.476815 254.816499 168.233327 262.613691 165.095214 271.787582 
C 161.957102 280.961473 162.116952 290.949056 165.547036 300.017823 
" clip-path="url(#p4bdbf91788)" style="fill: #aee6e8; opacity: 0.8; stroke: #808080; stroke-width: 2; stroke-linejoin: miter"/>
   </g>
   <g id="patch_7">
    <path d="M 241.668255 266.381601 
C 238.124974 270.637536 234.211146 274.570789 229.972806 278.135098 
C 225.734466 281.699406 221.188297 284.88074 216.387772 287.641679 
C 220.559208 290.37881 224.935425 292.790339 229.477523 294.854829 
C 234.01962 296.91932 238.7141 298.630637 243.519233 299.973569 
C 245.562297 294.553345 246.45298 288.766211 246.134287 282.982494 
C 245.815594 277.198778 244.29447 271.544539 241.668255 266.381601 
" clip-path="url(#p4bdbf91788)" style="fill: #dfaadf; opacity: 0.8; stroke: #808080; stroke-width: 2; stroke-linejoin: miter"/>
   </g>
   <g id="patch_8">
    <path d="M 182.742645 249.748552 
C 186.557393 257.408211 191.368058 264.53006 197.049483 270.928816 
C 202.730908 277.327573 209.233394 282.947261 216.387772 287.641679 
C 221.188297 284.88074 225.734466 281.699406 229.972806 278.135098 
C 234.211146 274.570789 238.124974 270.637536 241.668255 266.381601 
C 239.060805 261.255554 235.420223 256.724341 230.976217 253.073867 
C 226.532212 249.423393 221.380261 246.732086 215.845436 245.16976 
C 210.310612 243.607434 204.511826 243.207655 198.814967 243.995647 
C 193.118107 244.783639 187.645566 246.742473 182.742645 249.748552 
" clip-path="url(#p4bdbf91788)" style="fill: #bbb9ac; opacity: 0.8; stroke: #808080; stroke-width: 2; stroke-linejoin: miter"/>
   </g>
   <g id="text_1">
    <!-- 1900 -->
    <g transform="translate(104.420371 203.395012) scale(0.12 -0.12)">
     <defs>
      <path id="DejaVuSans-31" d="M 794 531 
L 1825 531 
L 1825 4091 
L 703 3866 
L 703 4441 
L 1819 4666 
L 2450 4666 
L 2450 531 
L 3481 531 
L 3481 0 
L 794 0 
L 794 531 
z
" transform="scale(0.015625)"/>
      <path id="DejaVuSans-39" d="M 703 97 
L 703 672 
Q 941 559 1184 500 
Q 1428 441 1663 441 
Q 2288 441 2617 861 
Q 2947 1281 2994 2138 
Q 2813 1869 2534 1725 
Q 2256 1581 1919 1581 
Q 1219 1581 811 2004 
Q 403 2428 403 3163 
Q 403 3881 828 4315 
Q 1253 4750 1959 4750 
Q 2769 4750 3195 4129 
Q 3622 3509 3622 2328 
Q 3622 1225 3098 567 
Q 2575 -91 1691 -91 
Q 1453 -91 1209 -44 
Q 966 3 703 97 
z
M 1959 2075 
Q 2384 2075 2632 2365 
Q 2881 2656 2881 3163 
Q 2881 3666 2632 3958 
Q 2384 4250 1959 4250 
Q 1534 4250 1286 3958 
Q 1038 3666 1038 3163 
Q 1038 2656 1286 2365 
Q 1534 2075 1959 2075 
z
" transform="scale(0.015625)"/>
      <path id="DejaVuSans-30" d="M 2034 4250 
Q 1547 4250 1301 3770 
Q 1056 3291 1056 2328 
Q 1056 1369 1301 889 
Q 1547 409 2034 409 
Q 2525 409 2770 889 
Q 3016 1369 3016 2328 
Q 3016 3291 2770 3770 
Q 2525 4250 2034 4250 
z
M 2034 4750 
Q 2819 4750 3233 4129 
Q 3647 3509 3647 2328 
Q 3647 1150 3233 529 
Q 2819 -91 2034 -91 
Q 1250 -91 836 529 
Q 422 1150 422 2328 
Q 422 3509 836 4129 
Q 1250 4750 2034 4750 
z
" transform="scale(0.015625)"/>
     </defs>
     <use xlink:href="#DejaVuSans-31"/>
     <use xlink:href="#DejaVuSans-39" x="63.623047"/>
     <use xlink:href="#DejaVuSans-30" x="127.246094"/>
     <use xlink:href="#DejaVuSans-30" x="190.869141"/>
    </g>
   </g>
   <g id="text_2">
    <!-- 2275 -->
    <g transform="translate(307.690047 206.0112) scale(0.12 -0.12)">
     <defs>
      <path id="DejaVuSans-32" d="M 1228 531 
L 3431 531 
L 3431 0 
L 469 0 
L 469 531 
Q 828 903 1448 1529 
Q 2069 2156 2228 2338 
Q 2531 2678 2651 2914 
Q 2772 3150 2772 3378 
Q 2772 3750 2511 3984 
Q 2250 4219 1831 4219 
Q 1534 4219 1204 4116 
Q 875 4013 500 3803 
L 500 4441 
Q 881 4594 1212 4672 
Q 1544 4750 1819 4750 
Q 2544 4750 2975 4387 
Q 3406 4025 3406 3419 
Q 3406 3131 3298 2873 
Q 3191 2616 2906 2266 
Q 2828 2175 2409 1742 
Q 1991 1309 1228 531 
z
" transform="scale(0.015625)"/>
      <path id="DejaVuSans-37" d="M 525 4666 
L 3525 4666 
L 3525 4397 
L 1831 0 
L 1172 0 
L 2766 4134 
L 525 4134 
L 525 4666 
z
" transform="scale(0.015625)"/>
      <path id="DejaVuSans-35" d="M 691 4666 
L 3169 4666 
L 3169 4134 
L 1269 4134 
L 1269 2991 
Q 1406 3038 1543 3061 
Q 1681 3084 1819 3084 
Q 2600 3084 3056 2656 
Q 3513 2228 3513 1497 
Q 3513 744 3044 326 
Q 2575 -91 1722 -91 
Q 1428 -91 1123 -41 
Q 819 9 494 109 
L 494 744 
Q 775 591 1075 516 
Q 1375 441 1709 441 
Q 2250 441 2565 725 
Q 2881 1009 2881 1497 
Q 2881 1984 2565 2268 
Q 2250 2553 1709 2553 
Q 1456 2553 1204 2497 
Q 953 2441 691 2322 
L 691 4666 
z
" transform="scale(0.015625)"/>
     </defs>
     <use xlink:href="#DejaVuSans-32"/>
     <use xlink:href="#DejaVuSans-32" x="63.623047"/>
     <use xlink:href="#DejaVuSans-37" x="127.246094"/>
     <use xlink:href="#DejaVuSans-35" x="190.869141"/>
    </g>
   </g>
   <g id="text_3">
    <!-- 1073 -->
    <g transform="translate(205.171195 209.422834) scale(0.12 -0.12)">
     <defs>
      <path id="DejaVuSans-33" d="M 2597 2516 
Q 3050 2419 3304 2112 
Q 3559 1806 3559 1356 
Q 3559 666 3084 287 
Q 2609 -91 1734 -91 
Q 1441 -91 1130 -33 
Q 819 25 488 141 
L 488 750 
Q 750 597 1062 519 
Q 1375 441 1716 441 
Q 2309 441 2620 675 
Q 2931 909 2931 1356 
Q 2931 1769 2642 2001 
Q 2353 2234 1838 2234 
L 1294 2234 
L 1294 2753 
L 1863 2753 
Q 2328 2753 2575 2939 
Q 2822 3125 2822 3475 
Q 2822 3834 2567 4026 
Q 2313 4219 1838 4219 
Q 1578 4219 1281 4162 
Q 984 4106 628 3988 
L 628 4550 
Q 988 4650 1302 4700 
Q 1616 4750 1894 4750 
Q 2613 4750 3031 4423 
Q 3450 4097 3450 3541 
Q 3450 3153 3228 2886 
Q 3006 2619 2597 2516 
z
" transform="scale(0.015625)"/>
     </defs>
     <use xlink:href="#DejaVuSans-31"/>
     <use xlink:href="#DejaVuSans-30" x="63.623047"/>
     <use xlink:href="#DejaVuSans-37" x="127.246094"/>
     <use xlink:href="#DejaVuSans-33" x="190.869141"/>
    </g>
   </g>
   <g id="text_4">
    <!-- 230 -->
    <g transform="translate(193.244966 313.364095) scale(0.12 -0.12)">
     <use xlink:href="#DejaVuSans-32"/>
     <use xlink:href="#DejaVuSans-33" x="63.623047"/>
     <use xlink:href="#DejaVuSans-30" x="127.246094"/>
    </g>
   </g>
   <g id="text_5">
    <!-- 182 -->
    <g transform="translate(170.98354 282.989539) scale(0.12 -0.12)">
     <defs>
      <path id="DejaVuSans-38" d="M 2034 2216 
Q 1584 2216 1326 1975 
Q 1069 1734 1069 1313 
Q 1069 891 1326 650 
Q 1584 409 2034 409 
Q 2484 409 2743 651 
Q 3003 894 3003 1313 
Q 3003 1734 2745 1975 
Q 2488 2216 2034 2216 
z
M 1403 2484 
Q 997 2584 770 2862 
Q 544 3141 544 3541 
Q 544 4100 942 4425 
Q 1341 4750 2034 4750 
Q 2731 4750 3128 4425 
Q 3525 4100 3525 3541 
Q 3525 3141 3298 2862 
Q 3072 2584 2669 2484 
Q 3125 2378 3379 2068 
Q 3634 1759 3634 1313 
Q 3634 634 3220 271 
Q 2806 -91 2034 -91 
Q 1263 -91 848 271 
Q 434 634 434 1313 
Q 434 1759 690 2068 
Q 947 2378 1403 2484 
z
M 1172 3481 
Q 1172 3119 1398 2916 
Q 1625 2713 2034 2713 
Q 2441 2713 2670 2916 
Q 2900 3119 2900 3481 
Q 2900 3844 2670 4047 
Q 2441 4250 2034 4250 
Q 1625 4250 1398 4047 
Q 1172 3844 1172 3481 
z
" transform="scale(0.015625)"/>
     </defs>
     <use xlink:href="#DejaVuSans-31"/>
     <use xlink:href="#DejaVuSans-38" x="63.623047"/>
     <use xlink:href="#DejaVuSans-32" x="127.246094"/>
    </g>
   </g>
   <g id="text_6">
    <!-- 58 -->
    <g transform="translate(229.021166 289.797834) scale(0.12 -0.12)">
     <use xlink:href="#DejaVuSans-35"/>
     <use xlink:href="#DejaVuSans-38" x="63.623047"/>
    </g>
   </g>
   <g id="text_7">
    <!-- 193 -->
    <g transform="translate(200.246795 265.082379) scale(0.12 -0.12)">
     <use xlink:href="#DejaVuSans-31"/>
     <use xlink:href="#DejaVuSans-39" x="63.623047"/>
     <use xlink:href="#DejaVuSans-33" x="127.246094"/>
    </g>
   </g>
   <g id="text_8">
    <!-- I -->
    <g transform="translate(117.56736 112.818991) scale(0.18 -0.18)">
     <defs>
      <path id="DejaVuSans-49" d="M 628 4666 
L 1259 4666 
L 1259 0 
L 628 0 
L 628 4666 
z
" transform="scale(0.015625)"/>
     </defs>
     <use xlink:href="#DejaVuSans-49"/>
    </g>
   </g>
   <g id="text_9">
    <!-- II -->
    <g transform="translate(318.199204 109.37212) scale(0.18 -0.18)">
     <use xlink:href="#DejaVuSans-49"/>
     <use xlink:href="#DejaVuSans-49" x="29.492188"/>
    </g>
   </g>
   <g id="text_10">
    <!-- III -->
    <g transform="translate(196.559779 344.792331) scale(0.18 -0.18)">
     <use xlink:href="#DejaVuSans-49"/>
     <use xlink:href="#DejaVuSans-49" x="29.492188"/>
     <use xlink:href="#DejaVuSans-49" x="58.984375"/>
    </g>
   </g>
  </g>
 </g>
 <defs>
  <clipPath id="p4bdbf91788">
   <rect x="54" y="87.317502" width="334.8" height="261.684996"/>
  </clipPath>
 </defs>
</svg>
