<?xml version="1.0" encoding="utf-8" standalone="no"?>
<!DOCTYPE svg PUBLIC "-//W3C//DTD SVG 1.1//EN"
  "http://www.w3.org/Graphics/SVG/1.1/DTD/svg11.dtd">
<svg xmlns:xlink="http://www.w3.org/1999/xlink" width="576pt" height="360pt" viewBox="0 0 576 360" xmlns="http://www.w3.org/2000/svg" version="1.1">
 <metadata>
  <rdf:RDF xmlns:dc="http://purl.org/dc/elements/1.1/" xmlns:cc="http://creativecommons.org/ns#" xmlns:rdf="http://www.w3.org/1999/02/22-rdf-syntax-ns#">
   <cc:Work>
    <dc:type rdf:resource="http://purl.org/dc/dcmitype/StillImage"/>
    <dc:date>2025-06-25T14:13:59.240150</dc:date>
    <dc:format>image/svg+xml</dc:format>
    <dc:creator>
     <cc:Agent>
      <dc:title>Matplotlib v3.7.1, https://matplotlib.org/</dc:title>
     </cc:Agent>
    </dc:creator>
   </cc:Work>
  </rdf:RDF>
 </metadata>
 <defs>
  <style type="text/css">*{stroke-linejoin: round; stroke-linecap: butt}</style>
 </defs>
 <g id="figure_1">
  <g id="patch_1">
   <path d="M 0 360 
L 576 360 
L 576 0 
L 0 0 
L 0 360 
z
" style="fill: none"/>
  </g>
  <g id="axes_1">
   <g id="patch_2">
    <path d="M 117.8975 94.322 
C 106.235558 94.322 94.695469 96.703023 83.985894 101.318855 
C 73.276319 105.934686 63.621062 112.688866 55.613039 121.166628 
L 80.526824 144.699977 
C 85.331637 139.613319 91.124792 135.560811 97.550536 132.791313 
C 103.976281 130.021814 110.900335 128.5932 117.8975 128.5932 
z
" style="fill: #d3d3d3"/>
   </g>
   <g id="patch_3">
    <path d="M 55.613039 121.166628 
C 44.039418 133.419143 36.334562 148.8186 33.467876 165.427481 
C 30.60119 182.036362 32.698163 199.127611 39.49496 214.550852 
C 46.291757 229.974093 57.490847 243.054173 71.68319 252.145389 
C 85.875532 261.236606 102.439858 265.94099 119.292084 265.666649 
L 118.734251 231.39999 
C 108.622915 231.564594 98.684319 228.741963 90.168914 223.287234 
C 81.653508 217.832504 74.934054 209.984456 70.855976 200.730511 
C 66.777898 191.476567 65.519714 181.221817 67.239726 171.256489 
C 68.959737 161.29116 73.582651 152.051486 80.526824 144.699977 
z
" style="fill: #fdd49e"/>
   </g>
   <g id="patch_4">
    <path d="M 119.292084 265.666649 
C 133.777446 265.430839 147.969091 261.524845 160.53505 254.315268 
C 173.101008 247.10569 183.635454 236.825368 191.149667 224.439169 
C 198.66388 212.05297 202.915183 197.960916 203.504568 183.485629 
C 204.093952 169.010341 201.002383 154.61931 194.520022 141.663219 
L 163.871013 156.997931 
C 167.76043 164.771586 169.615371 173.406205 169.261741 182.091377 
C 168.90811 190.77655 166.357328 199.231782 161.8488 206.663501 
C 157.340272 214.095221 151.019605 220.263414 143.48003 224.589161 
C 135.940455 228.914907 127.425468 231.258504 118.734251 231.39999 
z
" style="fill: #fdba83"/>
   </g>
   <g id="patch_5">
    <path d="M 194.520022 141.663219 
C 190.978198 134.584286 186.472396 128.030209 181.131333 122.188219 
C 175.79027 116.346228 169.665295 111.272488 162.931378 107.111938 
L 144.917827 136.267163 
C 148.958177 138.763493 152.633162 141.807737 155.8378 145.312931 
C 159.042438 148.818126 161.745919 152.750572 163.871013 156.997931 
z
" style="fill: #fc8c59"/>
   </g>
   <g id="patch_6">
    <path d="M 162.931378 107.111938 
C 160.162249 105.401032 157.297869 103.849321 154.352171 102.464352 
C 151.406473 101.079384 148.384242 99.863407 145.300178 98.822337 
L 134.339107 131.293402 
C 136.189545 131.918044 138.002884 132.64763 139.770303 133.478611 
C 141.537721 134.309593 143.256349 135.240619 144.917827 136.267163 
z
" style="fill: #ef6447"/>
   </g>
   <g id="patch_7">
    <path d="M 145.300178 98.822337 
C 140.893135 97.334677 136.372255 96.208364 131.782378 95.454569 
C 127.192502 94.700775 122.548854 94.322 117.897492 94.322 
L 117.897495 128.5932 
C 120.688313 128.5932 123.474501 128.820465 126.228427 129.272742 
C 128.982353 129.725018 131.694881 130.400806 134.339107 131.293402 
z
" style="fill: #d62f1e"/>
   </g>
   <g id="matplotlib.axis_1"/>
   <g id="matplotlib.axis_2"/>
   <g id="text_1">
    <!-- 25 -->
    <g transform="translate(83.811447 121.939957) scale(0.12 -0.12)">
     <defs>
      <path id="DejaVuSans-32" d="M 1228 531 
L 3431 531 
L 3431 0 
L 469 0 
L 469 531 
Q 828 903 1448 1529 
Q 2069 2156 2228 2338 
Q 2531 2678 2651 2914 
Q 2772 3150 2772 3378 
Q 2772 3750 2511 3984 
Q 2250 4219 1831 4219 
Q 1534 4219 1204 4116 
Q 875 4013 500 3803 
L 500 4441 
Q 881 4594 1212 4672 
Q 1544 4750 1819 4750 
Q 2544 4750 2975 4387 
Q 3406 4025 3406 3419 
Q 3406 3131 3298 2873 
Q 3191 2616 2906 2266 
Q 2828 2175 2409 1742 
Q 1991 1309 1228 531 
z
" transform="scale(0.015625)"/>
      <path id="DejaVuSans-35" d="M 691 4666 
L 3169 4666 
L 3169 4134 
L 1269 4134 
L 1269 2991 
Q 1406 3038 1543 3061 
Q 1681 3084 1819 3084 
Q 2600 3084 3056 2656 
Q 3513 2228 3513 1497 
Q 3513 744 3044 326 
Q 2575 -91 1722 -91 
Q 1428 -91 1123 -41 
Q 819 9 494 109 
L 494 744 
Q 775 591 1075 516 
Q 1375 441 1709 441 
Q 2250 441 2565 725 
Q 2881 1009 2881 1497 
Q 2881 1984 2565 2268 
Q 2250 2553 1709 2553 
Q 1456 2553 1204 2497 
Q 953 2441 691 2322 
L 691 4666 
z
" transform="scale(0.015625)"/>
     </defs>
     <use xlink:href="#DejaVuSans-32"/>
     <use xlink:href="#DejaVuSans-35" x="63.623047"/>
    </g>
   </g>
   <g id="text_2">
    <!-- 72 -->
    <g transform="translate(49.108519 210.260915) scale(0.12 -0.12)">
     <defs>
      <path id="DejaVuSans-37" d="M 525 4666 
L 3525 4666 
L 3525 4397 
L 1831 0 
L 1172 0 
L 2766 4134 
L 525 4134 
L 525 4666 
z
" transform="scale(0.015625)"/>
     </defs>
     <use xlink:href="#DejaVuSans-37"/>
     <use xlink:href="#DejaVuSans-32" x="63.623047"/>
    </g>
   </g>
   <g id="text_3">
    <!-- 62 -->
    <g transform="translate(167.39919 217.973802) scale(0.12 -0.12)">
     <defs>
      <path id="DejaVuSans-36" d="M 2113 2584 
Q 1688 2584 1439 2293 
Q 1191 2003 1191 1497 
Q 1191 994 1439 701 
Q 1688 409 2113 409 
Q 2538 409 2786 701 
Q 3034 994 3034 1497 
Q 3034 2003 2786 2293 
Q 2538 2584 2113 2584 
z
M 3366 4563 
L 3366 3988 
Q 3128 4100 2886 4159 
Q 2644 4219 2406 4219 
Q 1781 4219 1451 3797 
Q 1122 3375 1075 2522 
Q 1259 2794 1537 2939 
Q 1816 3084 2150 3084 
Q 2853 3084 3261 2657 
Q 3669 2231 3669 1497 
Q 3669 778 3244 343 
Q 2819 -91 2113 -91 
Q 1303 -91 875 529 
Q 447 1150 447 2328 
Q 447 3434 972 4092 
Q 1497 4750 2381 4750 
Q 2619 4750 2861 4703 
Q 3103 4656 3366 4563 
z
" transform="scale(0.015625)"/>
     </defs>
     <use xlink:href="#DejaVuSans-36"/>
     <use xlink:href="#DejaVuSans-32" x="63.623047"/>
    </g>
   </g>
   <g id="text_4">
    <!-- 17 -->
    <g transform="translate(159.58489 138.218061) scale(0.12 -0.12)">
     <defs>
      <path id="DejaVuSans-31" d="M 794 531 
L 1825 531 
L 1825 4091 
L 703 3866 
L 703 4441 
L 1819 4666 
L 2450 4666 
L 2450 531 
L 3481 531 
L 3481 0 
L 794 0 
L 794 531 
z
" transform="scale(0.015625)"/>
     </defs>
     <use xlink:href="#DejaVuSans-31"/>
     <use xlink:href="#DejaVuSans-37" x="63.623047"/>
    </g>
   </g>
   <g id="text_5">
    <!-- 7 -->
    <g transform="translate(142.514643 122.833445) scale(0.12 -0.12)">
     <use xlink:href="#DejaVuSans-37"/>
    </g>
   </g>
   <g id="text_6">
    <!-- 10 -->
    <g transform="translate(121.092705 117.365814) scale(0.12 -0.12)">
     <defs>
      <path id="DejaVuSans-30" d="M 2034 4250 
Q 1547 4250 1301 3770 
Q 1056 3291 1056 2328 
Q 1056 1369 1301 889 
Q 1547 409 2034 409 
Q 2525 409 2770 889 
Q 3016 1369 3016 2328 
Q 3016 3291 2770 3770 
Q 2525 4250 2034 4250 
z
M 2034 4750 
Q 2819 4750 3233 4129 
Q 3647 3509 3647 2328 
Q 3647 1150 3233 529 
Q 2819 -91 2034 -91 
Q 1250 -91 836 529 
Q 422 1150 422 2328 
Q 422 3509 836 4129 
Q 1250 4750 2034 4750 
z
" transform="scale(0.015625)"/>
     </defs>
     <use xlink:href="#DejaVuSans-31"/>
     <use xlink:href="#DejaVuSans-30" x="63.623047"/>
    </g>
   </g>
   <g id="text_7">
    <!-- positive group -->
    <g transform="translate(75.032187 176.592562) scale(0.12 -0.12)">
     <defs>
      <path id="DejaVuSans-70" d="M 1159 525 
L 1159 -1331 
L 581 -1331 
L 581 3500 
L 1159 3500 
L 1159 2969 
Q 1341 3281 1617 3432 
Q 1894 3584 2278 3584 
Q 2916 3584 3314 3078 
Q 3713 2572 3713 1747 
Q 3713 922 3314 415 
Q 2916 -91 2278 -91 
Q 1894 -91 1617 61 
Q 1341 213 1159 525 
z
M 3116 1747 
Q 3116 2381 2855 2742 
Q 2594 3103 2138 3103 
Q 1681 3103 1420 2742 
Q 1159 2381 1159 1747 
Q 1159 1113 1420 752 
Q 1681 391 2138 391 
Q 2594 391 2855 752 
Q 3116 1113 3116 1747 
z
" transform="scale(0.015625)"/>
      <path id="DejaVuSans-6f" d="M 1959 3097 
Q 1497 3097 1228 2736 
Q 959 2375 959 1747 
Q 959 1119 1226 758 
Q 1494 397 1959 397 
Q 2419 397 2687 759 
Q 2956 1122 2956 1747 
Q 2956 2369 2687 2733 
Q 2419 3097 1959 3097 
z
M 1959 3584 
Q 2709 3584 3137 3096 
Q 3566 2609 3566 1747 
Q 3566 888 3137 398 
Q 2709 -91 1959 -91 
Q 1206 -91 779 398 
Q 353 888 353 1747 
Q 353 2609 779 3096 
Q 1206 3584 1959 3584 
z
" transform="scale(0.015625)"/>
      <path id="DejaVuSans-73" d="M 2834 3397 
L 2834 2853 
Q 2591 2978 2328 3040 
Q 2066 3103 1784 3103 
Q 1356 3103 1142 2972 
Q 928 2841 928 2578 
Q 928 2378 1081 2264 
Q 1234 2150 1697 2047 
L 1894 2003 
Q 2506 1872 2764 1633 
Q 3022 1394 3022 966 
Q 3022 478 2636 193 
Q 2250 -91 1575 -91 
Q 1294 -91 989 -36 
Q 684 19 347 128 
L 347 722 
Q 666 556 975 473 
Q 1284 391 1588 391 
Q 1994 391 2212 530 
Q 2431 669 2431 922 
Q 2431 1156 2273 1281 
Q 2116 1406 1581 1522 
L 1381 1569 
Q 847 1681 609 1914 
Q 372 2147 372 2553 
Q 372 3047 722 3315 
Q 1072 3584 1716 3584 
Q 2034 3584 2315 3537 
Q 2597 3491 2834 3397 
z
" transform="scale(0.015625)"/>
      <path id="DejaVuSans-69" d="M 603 3500 
L 1178 3500 
L 1178 0 
L 603 0 
L 603 3500 
z
M 603 4863 
L 1178 4863 
L 1178 4134 
L 603 4134 
L 603 4863 
z
" transform="scale(0.015625)"/>
      <path id="DejaVuSans-74" d="M 1172 4494 
L 1172 3500 
L 2356 3500 
L 2356 3053 
L 1172 3053 
L 1172 1153 
Q 1172 725 1289 603 
Q 1406 481 1766 481 
L 2356 481 
L 2356 0 
L 1766 0 
Q 1100 0 847 248 
Q 594 497 594 1153 
L 594 3053 
L 172 3053 
L 172 3500 
L 594 3500 
L 594 4494 
L 1172 4494 
z
" transform="scale(0.015625)"/>
      <path id="DejaVuSans-76" d="M 191 3500 
L 800 3500 
L 1894 563 
L 2988 3500 
L 3597 3500 
L 2284 0 
L 1503 0 
L 191 3500 
z
" transform="scale(0.015625)"/>
      <path id="DejaVuSans-65" d="M 3597 1894 
L 3597 1613 
L 953 1613 
Q 991 1019 1311 708 
Q 1631 397 2203 397 
Q 2534 397 2845 478 
Q 3156 559 3463 722 
L 3463 178 
Q 3153 47 2828 -22 
Q 2503 -91 2169 -91 
Q 1331 -91 842 396 
Q 353 884 353 1716 
Q 353 2575 817 3079 
Q 1281 3584 2069 3584 
Q 2775 3584 3186 3129 
Q 3597 2675 3597 1894 
z
M 3022 2063 
Q 3016 2534 2758 2815 
Q 2500 3097 2075 3097 
Q 1594 3097 1305 2825 
Q 1016 2553 972 2059 
L 3022 2063 
z
" transform="scale(0.015625)"/>
      <path id="DejaVuSans-20" transform="scale(0.015625)"/>
      <path id="DejaVuSans-67" d="M 2906 1791 
Q 2906 2416 2648 2759 
Q 2391 3103 1925 3103 
Q 1463 3103 1205 2759 
Q 947 2416 947 1791 
Q 947 1169 1205 825 
Q 1463 481 1925 481 
Q 2391 481 2648 825 
Q 2906 1169 2906 1791 
z
M 3481 434 
Q 3481 -459 3084 -895 
Q 2688 -1331 1869 -1331 
Q 1566 -1331 1297 -1286 
Q 1028 -1241 775 -1147 
L 775 -588 
Q 1028 -725 1275 -790 
Q 1522 -856 1778 -856 
Q 2344 -856 2625 -561 
Q 2906 -266 2906 331 
L 2906 616 
Q 2728 306 2450 153 
Q 2172 0 1784 0 
Q 1141 0 747 490 
Q 353 981 353 1791 
Q 353 2603 747 3093 
Q 1141 3584 1784 3584 
Q 2172 3584 2450 3431 
Q 2728 3278 2906 2969 
L 2906 3500 
L 3481 3500 
L 3481 434 
z
" transform="scale(0.015625)"/>
      <path id="DejaVuSans-72" d="M 2631 2963 
Q 2534 3019 2420 3045 
Q 2306 3072 2169 3072 
Q 1681 3072 1420 2755 
Q 1159 2438 1159 1844 
L 1159 0 
L 581 0 
L 581 3500 
L 1159 3500 
L 1159 2956 
Q 1341 3275 1631 3429 
Q 1922 3584 2338 3584 
Q 2397 3584 2469 3576 
Q 2541 3569 2628 3553 
L 2631 2963 
z
" transform="scale(0.015625)"/>
      <path id="DejaVuSans-75" d="M 544 1381 
L 544 3500 
L 1119 3500 
L 1119 1403 
Q 1119 906 1312 657 
Q 1506 409 1894 409 
Q 2359 409 2629 706 
Q 2900 1003 2900 1516 
L 2900 3500 
L 3475 3500 
L 3475 0 
L 2900 0 
L 2900 538 
Q 2691 219 2414 64 
Q 2138 -91 1772 -91 
Q 1169 -91 856 284 
Q 544 659 544 1381 
z
M 1991 3584 
L 1991 3584 
z
" transform="scale(0.015625)"/>
     </defs>
     <use xlink:href="#DejaVuSans-70"/>
     <use xlink:href="#DejaVuSans-6f" x="63.476562"/>
     <use xlink:href="#DejaVuSans-73" x="124.658203"/>
     <use xlink:href="#DejaVuSans-69" x="176.757812"/>
     <use xlink:href="#DejaVuSans-74" x="204.541016"/>
     <use xlink:href="#DejaVuSans-69" x="243.75"/>
     <use xlink:href="#DejaVuSans-76" x="271.533203"/>
     <use xlink:href="#DejaVuSans-65" x="330.712891"/>
     <use xlink:href="#DejaVuSans-20" x="392.236328"/>
     <use xlink:href="#DejaVuSans-67" x="424.023438"/>
     <use xlink:href="#DejaVuSans-72" x="487.5"/>
     <use xlink:href="#DejaVuSans-6f" x="526.363281"/>
     <use xlink:href="#DejaVuSans-75" x="587.544922"/>
     <use xlink:href="#DejaVuSans-70" x="650.923828"/>
    </g>
    <!-- n=193 -->
    <g transform="translate(97.614687 190.029937) scale(0.12 -0.12)">
     <defs>
      <path id="DejaVuSans-6e" d="M 3513 2113 
L 3513 0 
L 2938 0 
L 2938 2094 
Q 2938 2591 2744 2837 
Q 2550 3084 2163 3084 
Q 1697 3084 1428 2787 
Q 1159 2491 1159 1978 
L 1159 0 
L 581 0 
L 581 3500 
L 1159 3500 
L 1159 2956 
Q 1366 3272 1645 3428 
Q 1925 3584 2291 3584 
Q 2894 3584 3203 3211 
Q 3513 2838 3513 2113 
z
" transform="scale(0.015625)"/>
      <path id="DejaVuSans-3d" d="M 678 2906 
L 4684 2906 
L 4684 2381 
L 678 2381 
L 678 2906 
z
M 678 1631 
L 4684 1631 
L 4684 1100 
L 678 1100 
L 678 1631 
z
" transform="scale(0.015625)"/>
      <path id="DejaVuSans-39" d="M 703 97 
L 703 672 
Q 941 559 1184 500 
Q 1428 441 1663 441 
Q 2288 441 2617 861 
Q 2947 1281 2994 2138 
Q 2813 1869 2534 1725 
Q 2256 1581 1919 1581 
Q 1219 1581 811 2004 
Q 403 2428 403 3163 
Q 403 3881 828 4315 
Q 1253 4750 1959 4750 
Q 2769 4750 3195 4129 
Q 3622 3509 3622 2328 
Q 3622 1225 3098 567 
Q 2575 -91 1691 -91 
Q 1453 -91 1209 -44 
Q 966 3 703 97 
z
M 1959 2075 
Q 2384 2075 2632 2365 
Q 2881 2656 2881 3163 
Q 2881 3666 2632 3958 
Q 2384 4250 1959 4250 
Q 1534 4250 1286 3958 
Q 1038 3666 1038 3163 
Q 1038 2656 1286 2365 
Q 1534 2075 1959 2075 
z
" transform="scale(0.015625)"/>
      <path id="DejaVuSans-33" d="M 2597 2516 
Q 3050 2419 3304 2112 
Q 3559 1806 3559 1356 
Q 3559 666 3084 287 
Q 2609 -91 1734 -91 
Q 1441 -91 1130 -33 
Q 819 25 488 141 
L 488 750 
Q 750 597 1062 519 
Q 1375 441 1716 441 
Q 2309 441 2620 675 
Q 2931 909 2931 1356 
Q 2931 1769 2642 2001 
Q 2353 2234 1838 2234 
L 1294 2234 
L 1294 2753 
L 1863 2753 
Q 2328 2753 2575 2939 
Q 2822 3125 2822 3475 
Q 2822 3834 2567 4026 
Q 2313 4219 1838 4219 
Q 1578 4219 1281 4162 
Q 984 4106 628 3988 
L 628 4550 
Q 988 4650 1302 4700 
Q 1616 4750 1894 4750 
Q 2613 4750 3031 4423 
Q 3450 4097 3450 3541 
Q 3450 3153 3228 2886 
Q 3006 2619 2597 2516 
z
" transform="scale(0.015625)"/>
     </defs>
     <use xlink:href="#DejaVuSans-6e"/>
     <use xlink:href="#DejaVuSans-3d" x="63.378906"/>
     <use xlink:href="#DejaVuSans-31" x="147.167969"/>
     <use xlink:href="#DejaVuSans-39" x="210.791016"/>
     <use xlink:href="#DejaVuSans-33" x="274.414062"/>
    </g>
   </g>
  </g>
  <g id="axes_2">
   <g id="patch_8">
    <path d="M 342.8925 94.322 
C 320.986531 94.322 299.893617 102.723307 283.986435 117.784285 
C 268.079253 132.845263 258.538615 153.447913 257.342348 175.321194 
C 256.146081 197.194475 263.382985 218.714703 277.552811 235.420616 
C 291.722636 252.126529 311.773537 262.778024 333.548852 265.166988 
L 337.286311 231.100193 
C 324.221122 229.666815 312.190582 223.275917 303.688686 213.25237 
C 295.186791 203.228822 290.844649 190.316685 291.562409 177.192717 
C 292.280169 164.068748 298.004552 151.707158 307.548861 142.670571 
C 317.09317 133.633984 329.748919 128.5932 342.8925 128.5932 
z
" style="fill: #d3d3d3"/>
   </g>
   <g id="patch_9">
    <path d="M 333.548852 265.166988 
C 350.737977 267.052803 368.101876 263.691274 383.345324 255.526742 
C 398.588772 247.362209 411.009166 234.770994 418.964731 219.417451 
L 388.535838 203.65047 
C 383.7625 212.862596 376.310263 220.417326 367.164195 225.316045 
C 358.018126 230.214764 347.599786 232.231682 337.286311 231.100193 
z
" style="fill: #fdd49e"/>
   </g>
   <g id="patch_10">
    <path d="M 418.964731 219.417451 
C 426.553721 204.771364 429.753956 188.240615 428.179165 171.820485 
C 426.604374 155.400356 420.320571 139.779184 410.086221 126.842465 
L 383.208733 148.105479 
C 389.349343 155.86751 393.119624 165.240213 394.064499 175.092291 
C 395.009374 184.944369 393.089232 194.862818 388.535838 203.65047 
z
" style="fill: #fdba83"/>
   </g>
   <g id="patch_11">
    <path d="M 410.086221 126.842465 
C 406.209924 121.942636 401.80928 117.481469 396.962853 113.538608 
C 392.116426 109.595747 386.853231 106.194798 381.26723 103.396477 
L 365.917338 134.037886 
C 369.268938 135.716879 372.426856 137.757448 375.334712 140.123165 
C 378.242568 142.488881 380.882954 145.165582 383.208733 148.105479 
z
" style="fill: #fc8c59"/>
   </g>
   <g id="patch_12">
    <path d="M 381.26723 103.396477 
C 378.47631 101.998358 375.611066 100.753807 372.684319 99.668392 
C 369.757572 98.582977 366.773693 97.65832 363.746031 96.898556 
L 355.404619 130.139134 
C 357.221216 130.594992 359.011543 131.149786 360.767591 131.801035 
C 362.52364 132.452284 364.242786 133.199015 365.917338 134.037886 
z
" style="fill: #ef6447"/>
   </g>
   <g id="patch_13">
    <path d="M 363.746031 96.898556 
C 360.339687 96.043766 356.884006 95.399224 353.398552 94.968579 
C 349.913097 94.537934 346.40446 94.322 342.892502 94.322 
L 342.892501 128.5932 
C 344.999676 128.5932 347.104858 128.72276 349.196131 128.981147 
C 351.287404 129.239534 353.360812 129.62626 355.404619 130.139134 
z
" style="fill: #d62f1e"/>
   </g>
   <g id="matplotlib.axis_3"/>
   <g id="matplotlib.axis_4"/>
   <g id="text_8">
    <!-- 111 -->
    <g transform="translate(264.710882 179.661782) scale(0.12 -0.12)">
     <use xlink:href="#DejaVuSans-31"/>
     <use xlink:href="#DejaVuSans-31" x="63.623047"/>
     <use xlink:href="#DejaVuSans-31" x="127.246094"/>
    </g>
   </g>
   <g id="text_9">
    <!-- 44 -->
    <g transform="translate(366.810703 242.222108) scale(0.12 -0.12)">
     <defs>
      <path id="DejaVuSans-34" d="M 2419 4116 
L 825 1625 
L 2419 1625 
L 2419 4116 
z
M 2253 4666 
L 3047 4666 
L 3047 1625 
L 3713 1625 
L 3713 1100 
L 3047 1100 
L 3047 0 
L 2419 0 
L 2419 1100 
L 313 1100 
L 313 1709 
L 2253 4666 
z
" transform="scale(0.015625)"/>
     </defs>
     <use xlink:href="#DejaVuSans-34"/>
     <use xlink:href="#DejaVuSans-34" x="63.623047"/>
    </g>
   </g>
   <g id="text_10">
    <!-- 42 -->
    <g transform="translate(401.781099 176.931228) scale(0.12 -0.12)">
     <use xlink:href="#DejaVuSans-34"/>
     <use xlink:href="#DejaVuSans-32" x="63.623047"/>
    </g>
   </g>
   <g id="text_11">
    <!-- 16 -->
    <g transform="translate(377.432375 131.471364) scale(0.12 -0.12)">
     <use xlink:href="#DejaVuSans-31"/>
     <use xlink:href="#DejaVuSans-36" x="63.623047"/>
    </g>
   </g>
   <g id="text_12">
    <!-- 8 -->
    <g transform="translate(362.312619 120.652596) scale(0.12 -0.12)">
     <defs>
      <path id="DejaVuSans-38" d="M 2034 2216 
Q 1584 2216 1326 1975 
Q 1069 1734 1069 1313 
Q 1069 891 1326 650 
Q 1584 409 2034 409 
Q 2484 409 2743 651 
Q 3003 894 3003 1313 
Q 3003 1734 2745 1975 
Q 2488 2216 2034 2216 
z
M 1403 2484 
Q 997 2584 770 2862 
Q 544 3141 544 3541 
Q 544 4100 942 4425 
Q 1341 4750 2034 4750 
Q 2731 4750 3128 4425 
Q 3525 4100 3525 3541 
Q 3525 3141 3298 2862 
Q 3072 2584 2669 2484 
Q 3125 2378 3379 2068 
Q 3634 1759 3634 1313 
Q 3634 634 3220 271 
Q 2806 -91 2034 -91 
Q 1263 -91 848 271 
Q 434 634 434 1313 
Q 434 1759 690 2068 
Q 947 2378 1403 2484 
z
M 1172 3481 
Q 1172 3119 1398 2916 
Q 1625 2713 2034 2713 
Q 2441 2713 2670 2916 
Q 2900 3119 2900 3481 
Q 2900 3844 2670 4047 
Q 2441 4250 2034 4250 
Q 1625 4250 1398 4047 
Q 1172 3844 1172 3481 
z
" transform="scale(0.015625)"/>
     </defs>
     <use xlink:href="#DejaVuSans-38"/>
    </g>
   </g>
   <g id="text_13">
    <!-- 9 -->
    <g transform="translate(347.26972 116.986742) scale(0.12 -0.12)">
     <use xlink:href="#DejaVuSans-39"/>
    </g>
   </g>
   <g id="text_14">
    <!-- negative group -->
    <g transform="translate(297.319687 176.592562) scale(0.12 -0.12)">
     <defs>
      <path id="DejaVuSans-61" d="M 2194 1759 
Q 1497 1759 1228 1600 
Q 959 1441 959 1056 
Q 959 750 1161 570 
Q 1363 391 1709 391 
Q 2188 391 2477 730 
Q 2766 1069 2766 1631 
L 2766 1759 
L 2194 1759 
z
M 3341 1997 
L 3341 0 
L 2766 0 
L 2766 531 
Q 2569 213 2275 61 
Q 1981 -91 1556 -91 
Q 1019 -91 701 211 
Q 384 513 384 1019 
Q 384 1609 779 1909 
Q 1175 2209 1959 2209 
L 2766 2209 
L 2766 2266 
Q 2766 2663 2505 2880 
Q 2244 3097 1772 3097 
Q 1472 3097 1187 3025 
Q 903 2953 641 2809 
L 641 3341 
Q 956 3463 1253 3523 
Q 1550 3584 1831 3584 
Q 2591 3584 2966 3190 
Q 3341 2797 3341 1997 
z
" transform="scale(0.015625)"/>
     </defs>
     <use xlink:href="#DejaVuSans-6e"/>
     <use xlink:href="#DejaVuSans-65" x="63.378906"/>
     <use xlink:href="#DejaVuSans-67" x="124.902344"/>
     <use xlink:href="#DejaVuSans-61" x="188.378906"/>
     <use xlink:href="#DejaVuSans-74" x="249.658203"/>
     <use xlink:href="#DejaVuSans-69" x="288.867188"/>
     <use xlink:href="#DejaVuSans-76" x="316.650391"/>
     <use xlink:href="#DejaVuSans-65" x="375.830078"/>
     <use xlink:href="#DejaVuSans-20" x="437.353516"/>
     <use xlink:href="#DejaVuSans-67" x="469.140625"/>
     <use xlink:href="#DejaVuSans-72" x="532.617188"/>
     <use xlink:href="#DejaVuSans-6f" x="571.480469"/>
     <use xlink:href="#DejaVuSans-75" x="632.662109"/>
     <use xlink:href="#DejaVuSans-70" x="696.041016"/>
    </g>
    <!-- n=230 -->
    <g transform="translate(322.609688 190.029937) scale(0.12 -0.12)">
     <use xlink:href="#DejaVuSans-6e"/>
     <use xlink:href="#DejaVuSans-3d" x="63.378906"/>
     <use xlink:href="#DejaVuSans-32" x="147.167969"/>
     <use xlink:href="#DejaVuSans-33" x="210.791016"/>
     <use xlink:href="#DejaVuSans-30" x="274.414062"/>
    </g>
   </g>
   <g id="legend_1">
    <g id="patch_14">
     <path d="M 457.69 238.644688 
L 563.025312 238.644688 
Q 565.225312 238.644688 565.225312 236.444687 
L 565.225312 123.555312 
Q 565.225312 121.355312 563.025312 121.355312 
L 457.69 121.355312 
Q 455.49 121.355312 455.49 123.555312 
L 455.49 236.444687 
Q 455.49 238.644688 457.69 238.644688 
z
" style="fill: #ffffff; opacity: 0.8; stroke: #cccccc; stroke-linejoin: miter"/>
    </g>
    <g id="text_15">
     <!-- # of domains -->
     <g transform="translate(470.136094 134.873437) scale(0.12 -0.12)">
      <defs>
       <path id="DejaVuSans-23" d="M 3272 2816 
L 2363 2816 
L 2100 1772 
L 3016 1772 
L 3272 2816 
z
M 2803 4594 
L 2478 3297 
L 3391 3297 
L 3719 4594 
L 4219 4594 
L 3897 3297 
L 4872 3297 
L 4872 2816 
L 3775 2816 
L 3519 1772 
L 4513 1772 
L 4513 1294 
L 3397 1294 
L 3072 0 
L 2572 0 
L 2894 1294 
L 1978 1294 
L 1656 0 
L 1153 0 
L 1478 1294 
L 494 1294 
L 494 1772 
L 1594 1772 
L 1856 2816 
L 850 2816 
L 850 3297 
L 1978 3297 
L 2297 4594 
L 2803 4594 
z
" transform="scale(0.015625)"/>
       <path id="DejaVuSans-66" d="M 2375 4863 
L 2375 4384 
L 1825 4384 
Q 1516 4384 1395 4259 
Q 1275 4134 1275 3809 
L 1275 3500 
L 2222 3500 
L 2222 3053 
L 1275 3053 
L 1275 0 
L 697 0 
L 697 3053 
L 147 3053 
L 147 3500 
L 697 3500 
L 697 3744 
Q 697 4328 969 4595 
Q 1241 4863 1831 4863 
L 2375 4863 
z
" transform="scale(0.015625)"/>
       <path id="DejaVuSans-64" d="M 2906 2969 
L 2906 4863 
L 3481 4863 
L 3481 0 
L 2906 0 
L 2906 525 
Q 2725 213 2448 61 
Q 2172 -91 1784 -91 
Q 1150 -91 751 415 
Q 353 922 353 1747 
Q 353 2572 751 3078 
Q 1150 3584 1784 3584 
Q 2172 3584 2448 3432 
Q 2725 3281 2906 2969 
z
M 947 1747 
Q 947 1113 1208 752 
Q 1469 391 1925 391 
Q 2381 391 2643 752 
Q 2906 1113 2906 1747 
Q 2906 2381 2643 2742 
Q 2381 3103 1925 3103 
Q 1469 3103 1208 2742 
Q 947 2381 947 1747 
z
" transform="scale(0.015625)"/>
       <path id="DejaVuSans-6d" d="M 3328 2828 
Q 3544 3216 3844 3400 
Q 4144 3584 4550 3584 
Q 5097 3584 5394 3201 
Q 5691 2819 5691 2113 
L 5691 0 
L 5113 0 
L 5113 2094 
Q 5113 2597 4934 2840 
Q 4756 3084 4391 3084 
Q 3944 3084 3684 2787 
Q 3425 2491 3425 1978 
L 3425 0 
L 2847 0 
L 2847 2094 
Q 2847 2600 2669 2842 
Q 2491 3084 2119 3084 
Q 1678 3084 1418 2786 
Q 1159 2488 1159 1978 
L 1159 0 
L 581 0 
L 581 3500 
L 1159 3500 
L 1159 2956 
Q 1356 3278 1631 3431 
Q 1906 3584 2284 3584 
Q 2666 3584 2933 3390 
Q 3200 3197 3328 2828 
z
" transform="scale(0.015625)"/>
      </defs>
      <use xlink:href="#DejaVuSans-23"/>
      <use xlink:href="#DejaVuSans-20" x="83.789062"/>
      <use xlink:href="#DejaVuSans-6f" x="115.576172"/>
      <use xlink:href="#DejaVuSans-66" x="176.757812"/>
      <use xlink:href="#DejaVuSans-20" x="211.962891"/>
      <use xlink:href="#DejaVuSans-64" x="243.75"/>
      <use xlink:href="#DejaVuSans-6f" x="307.226562"/>
      <use xlink:href="#DejaVuSans-6d" x="368.408203"/>
      <use xlink:href="#DejaVuSans-61" x="465.820312"/>
      <use xlink:href="#DejaVuSans-69" x="527.099609"/>
      <use xlink:href="#DejaVuSans-6e" x="554.882812"/>
      <use xlink:href="#DejaVuSans-73" x="618.261719"/>
     </g>
    </g>
    <g id="patch_15">
     <path d="M 459.89 151.227344 
L 481.89 151.227344 
L 481.89 143.527344 
L 459.89 143.527344 
z
" style="fill: #d3d3d3"/>
    </g>
    <g id="text_16">
     <!-- no domains -->
     <g transform="translate(490.69 151.227344) scale(0.11 -0.11)">
      <use xlink:href="#DejaVuSans-6e"/>
      <use xlink:href="#DejaVuSans-6f" x="63.378906"/>
      <use xlink:href="#DejaVuSans-20" x="124.560547"/>
      <use xlink:href="#DejaVuSans-64" x="156.347656"/>
      <use xlink:href="#DejaVuSans-6f" x="219.824219"/>
      <use xlink:href="#DejaVuSans-6d" x="281.005859"/>
      <use xlink:href="#DejaVuSans-61" x="378.417969"/>
      <use xlink:href="#DejaVuSans-69" x="439.697266"/>
      <use xlink:href="#DejaVuSans-6e" x="467.480469"/>
      <use xlink:href="#DejaVuSans-73" x="530.859375"/>
     </g>
    </g>
    <g id="patch_16">
     <path d="M 459.89 167.373281 
L 481.89 167.373281 
L 481.89 159.673281 
L 459.89 159.673281 
z
" style="fill: #fdd49e"/>
    </g>
    <g id="text_17">
     <!-- 1 domain -->
     <g transform="translate(490.69 167.373281) scale(0.11 -0.11)">
      <use xlink:href="#DejaVuSans-31"/>
      <use xlink:href="#DejaVuSans-20" x="63.623047"/>
      <use xlink:href="#DejaVuSans-64" x="95.410156"/>
      <use xlink:href="#DejaVuSans-6f" x="158.886719"/>
      <use xlink:href="#DejaVuSans-6d" x="220.068359"/>
      <use xlink:href="#DejaVuSans-61" x="317.480469"/>
      <use xlink:href="#DejaVuSans-69" x="378.759766"/>
      <use xlink:href="#DejaVuSans-6e" x="406.542969"/>
     </g>
    </g>
    <g id="patch_17">
     <path d="M 459.89 183.519219 
L 481.89 183.519219 
L 481.89 175.819219 
L 459.89 175.819219 
z
" style="fill: #fdba83"/>
    </g>
    <g id="text_18">
     <!-- 2 domains -->
     <g transform="translate(490.69 183.519219) scale(0.11 -0.11)">
      <use xlink:href="#DejaVuSans-32"/>
      <use xlink:href="#DejaVuSans-20" x="63.623047"/>
      <use xlink:href="#DejaVuSans-64" x="95.410156"/>
      <use xlink:href="#DejaVuSans-6f" x="158.886719"/>
      <use xlink:href="#DejaVuSans-6d" x="220.068359"/>
      <use xlink:href="#DejaVuSans-61" x="317.480469"/>
      <use xlink:href="#DejaVuSans-69" x="378.759766"/>
      <use xlink:href="#DejaVuSans-6e" x="406.542969"/>
      <use xlink:href="#DejaVuSans-73" x="469.921875"/>
     </g>
    </g>
    <g id="patch_18">
     <path d="M 459.89 199.665156 
L 481.89 199.665156 
L 481.89 191.965156 
L 459.89 191.965156 
z
" style="fill: #fc8c59"/>
    </g>
    <g id="text_19">
     <!-- 3 domains -->
     <g transform="translate(490.69 199.665156) scale(0.11 -0.11)">
      <use xlink:href="#DejaVuSans-33"/>
      <use xlink:href="#DejaVuSans-20" x="63.623047"/>
      <use xlink:href="#DejaVuSans-64" x="95.410156"/>
      <use xlink:href="#DejaVuSans-6f" x="158.886719"/>
      <use xlink:href="#DejaVuSans-6d" x="220.068359"/>
      <use xlink:href="#DejaVuSans-61" x="317.480469"/>
      <use xlink:href="#DejaVuSans-69" x="378.759766"/>
      <use xlink:href="#DejaVuSans-6e" x="406.542969"/>
      <use xlink:href="#DejaVuSans-73" x="469.921875"/>
     </g>
    </g>
    <g id="patch_19">
     <path d="M 459.89 215.811094 
L 481.89 215.811094 
L 481.89 208.111094 
L 459.89 208.111094 
z
" style="fill: #ef6447"/>
    </g>
    <g id="text_20">
     <!-- 4 domains -->
     <g transform="translate(490.69 215.811094) scale(0.11 -0.11)">
      <use xlink:href="#DejaVuSans-34"/>
      <use xlink:href="#DejaVuSans-20" x="63.623047"/>
      <use xlink:href="#DejaVuSans-64" x="95.410156"/>
      <use xlink:href="#DejaVuSans-6f" x="158.886719"/>
      <use xlink:href="#DejaVuSans-6d" x="220.068359"/>
      <use xlink:href="#DejaVuSans-61" x="317.480469"/>
      <use xlink:href="#DejaVuSans-69" x="378.759766"/>
      <use xlink:href="#DejaVuSans-6e" x="406.542969"/>
      <use xlink:href="#DejaVuSans-73" x="469.921875"/>
     </g>
    </g>
    <g id="patch_20">
     <path d="M 459.89 231.957031 
L 481.89 231.957031 
L 481.89 224.257031 
L 459.89 224.257031 
z
" style="fill: #d62f1e"/>
    </g>
    <g id="text_21">
     <!-- ≥ 5 domains -->
     <g transform="translate(490.69 231.957031) scale(0.11 -0.11)">
      <defs>
       <path id="DejaVuSans-2265" d="M 678 3175 
L 678 3725 
L 4684 2578 
L 4684 2047 
L 678 897 
L 678 1453 
L 3681 2309 
L 678 3175 
z
M 4684 531 
L 4684 0 
L 678 0 
L 678 531 
L 4684 531 
z
" transform="scale(0.015625)"/>
      </defs>
      <use xlink:href="#DejaVuSans-2265"/>
      <use xlink:href="#DejaVuSans-20" x="83.789062"/>
      <use xlink:href="#DejaVuSans-35" x="115.576172"/>
      <use xlink:href="#DejaVuSans-20" x="179.199219"/>
      <use xlink:href="#DejaVuSans-64" x="210.986328"/>
      <use xlink:href="#DejaVuSans-6f" x="274.462891"/>
      <use xlink:href="#DejaVuSans-6d" x="335.644531"/>
      <use xlink:href="#DejaVuSans-61" x="433.056641"/>
      <use xlink:href="#DejaVuSans-69" x="494.335938"/>
      <use xlink:href="#DejaVuSans-6e" x="522.119141"/>
      <use xlink:href="#DejaVuSans-73" x="585.498047"/>
     </g>
    </g>
   </g>
  </g>
 </g>
</svg>
