<?xml version="1.0" encoding="utf-8" standalone="no"?>
<!DOCTYPE svg PUBLIC "-//W3C//DTD SVG 1.1//EN"
  "http://www.w3.org/Graphics/SVG/1.1/DTD/svg11.dtd">
<svg xmlns:xlink="http://www.w3.org/1999/xlink" width="288pt" height="288pt" viewBox="0 0 288 288" xmlns="http://www.w3.org/2000/svg" version="1.1">
 <metadata>
  <rdf:RDF xmlns:dc="http://purl.org/dc/elements/1.1/" xmlns:cc="http://creativecommons.org/ns#" xmlns:rdf="http://www.w3.org/1999/02/22-rdf-syntax-ns#">
   <cc:Work>
    <dc:type rdf:resource="http://purl.org/dc/dcmitype/StillImage"/>
    <dc:date>2025-06-26T15:48:30.947158</dc:date>
    <dc:format>image/svg+xml</dc:format>
    <dc:creator>
     <cc:Agent>
      <dc:title>Matplotlib v3.7.1, https://matplotlib.org/</dc:title>
     </cc:Agent>
    </dc:creator>
   </cc:Work>
  </rdf:RDF>
 </metadata>
 <defs>
  <style type="text/css">*{stroke-linejoin: round; stroke-linecap: butt}</style>
 </defs>
 <g id="figure_1">
  <g id="patch_1">
   <path d="M 0 288 
L 288 288 
L 288 0 
L 0 0 
L 0 288 
z
" style="fill: none"/>
  </g>
  <g id="axes_1">
   <g id="patch_2">
    <path d="M 160.585516 170.53881 
C 156.019482 162.43967 153.619995 153.297566 153.619995 144 
C 153.619995 134.702434 156.019482 125.56033 160.585516 117.46119 
C 157.53563 110.046459 153.230274 103.212662 147.85889 97.260497 
C 142.487506 91.308333 136.130051 86.326401 129.066263 82.533918 
C 122.002476 78.741434 114.337504 76.19485 106.408621 75.006222 
C 98.479737 73.817593 90.404968 74.004612 82.539617 75.55905 
C 74.674265 77.113489 67.135412 80.012207 60.25478 84.127657 
C 53.374147 88.243107 47.254158 93.514028 42.164101 99.708489 
C 37.074045 105.902951 33.08969 112.928746 30.386355 120.476726 
C 27.68302 128.024707 26.300946 135.982517 26.300946 144 
C 26.300946 152.017483 27.68302 159.975293 30.386355 167.523274 
C 33.08969 175.071254 37.074045 182.097049 42.164101 188.291511 
C 47.254158 194.485972 53.374147 199.756893 60.25478 203.872343 
C 67.135412 207.987793 74.674265 210.886511 82.539617 212.44095 
C 90.404968 213.995388 98.479737 214.182407 106.408621 212.993778 
C 114.337504 211.80515 122.002476 209.258566 129.066263 205.466082 
C 136.130051 201.673599 142.487506 196.691667 147.85889 190.739503 
C 153.230274 184.787338 157.53563 177.953541 160.585516 170.53881 
" clip-path="url(#pf62f71c260)" style="fill: #c71585; opacity: 0.6; stroke: #808080; stroke-width: 2; stroke-linejoin: miter"/>
   </g>
   <g id="patch_3">
    <path d="M 160.585516 117.46119 
C 164.048542 125.880326 165.830411 134.896462 165.830411 144 
C 165.830411 153.103538 164.048542 162.119674 160.585516 170.53881 
C 163.498301 175.70545 167.241918 180.357479 171.665947 184.307978 
C 176.089977 188.258478 181.134363 191.45382 186.596422 193.765615 
C 192.058481 196.07741 197.864064 197.474276 203.779905 197.900086 
C 209.695746 198.325897 215.641535 197.774871 221.378371 196.26915 
C 227.115207 194.763429 232.565211 192.323452 237.509404 189.047258 
C 242.453596 185.771064 246.824858 181.703128 250.447553 177.006899 
C 254.070248 172.31067 256.895196 167.0499 258.808893 161.435966 
C 260.722589 155.822033 261.699054 149.931145 261.699054 144 
C 261.699054 138.068855 260.722589 132.177967 258.808893 126.564034 
C 256.895196 120.9501 254.070248 115.68933 250.447553 110.993101 
C 246.824858 106.296872 242.453596 102.228936 237.509404 98.952742 
C 232.565211 95.676548 227.115207 93.236571 221.378371 91.73085 
C 215.641535 90.225129 209.695746 89.674103 203.779905 90.099914 
C 197.864064 90.525724 192.058481 91.92259 186.596422 94.234385 
C 181.134363 96.54618 176.089977 99.741522 171.665947 103.692022 
C 167.241918 107.642521 163.498301 112.29455 160.585516 117.46119 
" clip-path="url(#pf62f71c260)" style="fill: #20b2aa; opacity: 0.6; stroke: #808080; stroke-width: 2; stroke-linejoin: miter"/>
   </g>
   <g id="patch_4">
    <path d="M 160.585516 170.53881 
C 164.048542 162.119674 165.830411 153.103538 165.830411 144 
C 165.830411 134.896462 164.048542 125.880326 160.585516 117.46119 
C 156.019482 125.56033 153.619995 134.702434 153.619995 144 
C 153.619995 153.297566 156.019482 162.43967 160.585516 170.53881 
" clip-path="url(#pf62f71c260)" style="fill: #a28bd4; opacity: 0.6; stroke: #808080; stroke-width: 2; stroke-linejoin: miter"/>
   </g>
   <g id="text_1">
    <!-- 34 -->
    <g transform="translate(81.05297 147.863125) scale(0.14 -0.14)">
     <defs>
      <path id="DejaVuSans-33" d="M 2597 2516 
Q 3050 2419 3304 2112 
Q 3559 1806 3559 1356 
Q 3559 666 3084 287 
Q 2609 -91 1734 -91 
Q 1441 -91 1130 -33 
Q 819 25 488 141 
L 488 750 
Q 750 597 1062 519 
Q 1375 441 1716 441 
Q 2309 441 2620 675 
Q 2931 909 2931 1356 
Q 2931 1769 2642 2001 
Q 2353 2234 1838 2234 
L 1294 2234 
L 1294 2753 
L 1863 2753 
Q 2328 2753 2575 2939 
Q 2822 3125 2822 3475 
Q 2822 3834 2567 4026 
Q 2313 4219 1838 4219 
Q 1578 4219 1281 4162 
Q 984 4106 628 3988 
L 628 4550 
Q 988 4650 1302 4700 
Q 1616 4750 1894 4750 
Q 2613 4750 3031 4423 
Q 3450 4097 3450 3541 
Q 3450 3153 3228 2886 
Q 3006 2619 2597 2516 
z
" transform="scale(0.015625)"/>
      <path id="DejaVuSans-34" d="M 2419 4116 
L 825 1625 
L 2419 1625 
L 2419 4116 
z
M 2253 4666 
L 3047 4666 
L 3047 1625 
L 3713 1625 
L 3713 1100 
L 3047 1100 
L 3047 0 
L 2419 0 
L 2419 1100 
L 313 1100 
L 313 1709 
L 2253 4666 
z
" transform="scale(0.015625)"/>
     </defs>
     <use xlink:href="#DejaVuSans-33"/>
     <use xlink:href="#DejaVuSans-34" x="63.623047"/>
    </g>
   </g>
   <g id="text_2">
    <!-- 20 -->
    <g transform="translate(204.857233 147.863125) scale(0.14 -0.14)">
     <defs>
      <path id="DejaVuSans-32" d="M 1228 531 
L 3431 531 
L 3431 0 
L 469 0 
L 469 531 
Q 828 903 1448 1529 
Q 2069 2156 2228 2338 
Q 2531 2678 2651 2914 
Q 2772 3150 2772 3378 
Q 2772 3750 2511 3984 
Q 2250 4219 1831 4219 
Q 1534 4219 1204 4116 
Q 875 4013 500 3803 
L 500 4441 
Q 881 4594 1212 4672 
Q 1544 4750 1819 4750 
Q 2544 4750 2975 4387 
Q 3406 4025 3406 3419 
Q 3406 3131 3298 2873 
Q 3191 2616 2906 2266 
Q 2828 2175 2409 1742 
Q 1991 1309 1228 531 
z
" transform="scale(0.015625)"/>
      <path id="DejaVuSans-30" d="M 2034 4250 
Q 1547 4250 1301 3770 
Q 1056 3291 1056 2328 
Q 1056 1369 1301 889 
Q 1547 409 2034 409 
Q 2525 409 2770 889 
Q 3016 1369 3016 2328 
Q 3016 3291 2770 3770 
Q 2525 4250 2034 4250 
z
M 2034 4750 
Q 2819 4750 3233 4129 
Q 3647 3509 3647 2328 
Q 3647 1150 3233 529 
Q 2819 -91 2034 -91 
Q 1250 -91 836 529 
Q 422 1150 422 2328 
Q 422 3509 836 4129 
Q 1250 4750 2034 4750 
z
" transform="scale(0.015625)"/>
     </defs>
     <use xlink:href="#DejaVuSans-32"/>
     <use xlink:href="#DejaVuSans-30" x="63.623047"/>
    </g>
   </g>
   <g id="text_3">
    <!-- 1 -->
    <g transform="translate(155.271453 147.863125) scale(0.14 -0.14)">
     <defs>
      <path id="DejaVuSans-31" d="M 794 531 
L 1825 531 
L 1825 4091 
L 703 3866 
L 703 4441 
L 1819 4666 
L 2450 4666 
L 2450 531 
L 3481 531 
L 3481 0 
L 794 0 
L 794 531 
z
" transform="scale(0.015625)"/>
     </defs>
     <use xlink:href="#DejaVuSans-31"/>
    </g>
   </g>
  </g>
 </g>
 <defs>
  <clipPath id="pf62f71c260">
   <rect x="10.8" y="58.734322" width="266.4" height="170.531356"/>
  </clipPath>
 </defs>
</svg>
